<mxfile host="app.diagrams.net" agent="Mozilla/5.0 (X11; Linux x86_64) AppleWebKit/537.36 (KHTML, like Gecko) Chrome/134.0.0.0 Safari/537.36" version="26.1.1">
  <diagram id="IEEMBY5G36jKw8OTY9Ss" name="Page-1">
    <mxGraphModel dx="3649" dy="1084" grid="1" gridSize="10" guides="1" tooltips="1" connect="1" arrows="1" fold="1" page="1" pageScale="1" pageWidth="850" pageHeight="1100" math="0" shadow="0">
      <root>
        <mxCell id="0" />
        <mxCell id="1" parent="0" />
        <mxCell id="NpKGvnTNqo4O0EPtivp0-92" value="" style="group" vertex="1" connectable="0" parent="1">
          <mxGeometry x="420" y="680" width="960" height="690" as="geometry" />
        </mxCell>
        <mxCell id="NpKGvnTNqo4O0EPtivp0-39" value="" style="rounded=0;whiteSpace=wrap;html=1;align=left;verticalAlign=top;" vertex="1" parent="NpKGvnTNqo4O0EPtivp0-92">
          <mxGeometry x="35.22935779816514" width="924.770642201835" height="690" as="geometry" />
        </mxCell>
        <mxCell id="NpKGvnTNqo4O0EPtivp0-85" value="Amazon API Gateway" style="sketch=0;outlineConnect=0;fontColor=#232F3E;gradientColor=none;strokeColor=#ffffff;fillColor=#232F3E;dashed=0;verticalLabelPosition=middle;verticalAlign=bottom;align=center;html=1;whiteSpace=wrap;fontSize=10;fontStyle=1;spacing=3;shape=mxgraph.aws4.productIcon;prIcon=mxgraph.aws4.api_gateway;" vertex="1" parent="NpKGvnTNqo4O0EPtivp0-92">
          <mxGeometry y="270" width="70.45871559633028" height="110" as="geometry" />
        </mxCell>
        <mxCell id="NpKGvnTNqo4O0EPtivp0-41" value="bff" style="rounded=0;whiteSpace=wrap;html=1;" vertex="1" parent="NpKGvnTNqo4O0EPtivp0-92">
          <mxGeometry x="250" y="170" width="120" height="60" as="geometry" />
        </mxCell>
        <mxCell id="NpKGvnTNqo4O0EPtivp0-42" value="srv" style="rounded=0;whiteSpace=wrap;html=1;" vertex="1" parent="NpKGvnTNqo4O0EPtivp0-92">
          <mxGeometry x="470" y="170" width="120" height="60" as="geometry" />
        </mxCell>
        <mxCell id="NpKGvnTNqo4O0EPtivp0-90" value="" style="strokeWidth=2;html=1;shape=mxgraph.flowchart.database;whiteSpace=wrap;" vertex="1" parent="NpKGvnTNqo4O0EPtivp0-92">
          <mxGeometry x="630" y="70" width="60" height="60" as="geometry" />
        </mxCell>
        <mxCell id="NpKGvnTNqo4O0EPtivp0-91" style="edgeStyle=orthogonalEdgeStyle;rounded=0;orthogonalLoop=1;jettySize=auto;html=1;" edge="1" parent="NpKGvnTNqo4O0EPtivp0-92" source="NpKGvnTNqo4O0EPtivp0-42" target="NpKGvnTNqo4O0EPtivp0-90">
          <mxGeometry relative="1" as="geometry" />
        </mxCell>
        <mxCell id="NpKGvnTNqo4O0EPtivp0-79" style="edgeStyle=orthogonalEdgeStyle;rounded=0;orthogonalLoop=1;jettySize=auto;html=1;entryX=0.507;entryY=1.052;entryDx=0;entryDy=0;entryPerimeter=0;" edge="1" parent="1" source="NpKGvnTNqo4O0EPtivp0-52" target="NpKGvnTNqo4O0EPtivp0-78">
          <mxGeometry relative="1" as="geometry" />
        </mxCell>
        <mxCell id="NpKGvnTNqo4O0EPtivp0-3" value="" style="group" vertex="1" connectable="0" parent="1">
          <mxGeometry x="120" y="330" width="80" height="100" as="geometry" />
        </mxCell>
        <mxCell id="2" value="Actor" style="shape=umlActor;verticalLabelPosition=bottom;verticalAlign=top;html=1;outlineConnect=0;" parent="NpKGvnTNqo4O0EPtivp0-3" vertex="1">
          <mxGeometry width="41.37931034482759" height="75" as="geometry" />
        </mxCell>
        <mxCell id="NpKGvnTNqo4O0EPtivp0-2" value="" style="html=1;verticalLabelPosition=bottom;align=center;labelBackgroundColor=#ffffff;verticalAlign=top;strokeWidth=2;strokeColor=#0080F0;shadow=0;dashed=0;shape=mxgraph.ios7.icons.smartphone;" vertex="1" parent="NpKGvnTNqo4O0EPtivp0-3">
          <mxGeometry x="55.17241379310345" y="62.5" width="24.827586206896555" height="37.5" as="geometry" />
        </mxCell>
        <mxCell id="NpKGvnTNqo4O0EPtivp0-8" value="" style="group" vertex="1" connectable="0" parent="1">
          <mxGeometry x="270" y="300" width="180" height="180" as="geometry" />
        </mxCell>
        <mxCell id="NpKGvnTNqo4O0EPtivp0-10" value="" style="rounded=0;whiteSpace=wrap;html=1;" vertex="1" parent="NpKGvnTNqo4O0EPtivp0-8">
          <mxGeometry x="-15" y="-10" width="155" height="180" as="geometry" />
        </mxCell>
        <mxCell id="NpKGvnTNqo4O0EPtivp0-4" value="conta 2" style="shape=process;whiteSpace=wrap;html=1;backgroundOutline=1;" vertex="1" parent="NpKGvnTNqo4O0EPtivp0-8">
          <mxGeometry y="60" width="120" height="40" as="geometry" />
        </mxCell>
        <mxCell id="NpKGvnTNqo4O0EPtivp0-5" value="conta 1" style="shape=process;whiteSpace=wrap;html=1;backgroundOutline=1;" vertex="1" parent="NpKGvnTNqo4O0EPtivp0-8">
          <mxGeometry width="120" height="40" as="geometry" />
        </mxCell>
        <mxCell id="NpKGvnTNqo4O0EPtivp0-6" value="conta 3" style="shape=process;whiteSpace=wrap;html=1;backgroundOutline=1;" vertex="1" parent="NpKGvnTNqo4O0EPtivp0-8">
          <mxGeometry y="120" width="120" height="40" as="geometry" />
        </mxCell>
        <mxCell id="NpKGvnTNqo4O0EPtivp0-12" style="edgeStyle=orthogonalEdgeStyle;rounded=0;orthogonalLoop=1;jettySize=auto;html=1;entryX=0.013;entryY=0.433;entryDx=0;entryDy=0;entryPerimeter=0;" edge="1" parent="1" source="2" target="NpKGvnTNqo4O0EPtivp0-10">
          <mxGeometry relative="1" as="geometry" />
        </mxCell>
        <mxCell id="NpKGvnTNqo4O0EPtivp0-24" value="&lt;h1 style=&quot;margin-top: 0px;&quot;&gt;1 - cadastros&lt;/h1&gt;&lt;p&gt;&lt;span style=&quot;background-color: transparent; color: light-dark(rgb(0, 0, 0), rgb(255, 255, 255));&quot;&gt;- clientes&lt;br&gt;&lt;/span&gt;&lt;span style=&quot;background-color: transparent; color: light-dark(rgb(0, 0, 0), rgb(255, 255, 255));&quot;&gt;- colaboradores&lt;br&gt;&lt;/span&gt;&lt;span style=&quot;background-color: transparent; color: light-dark(rgb(0, 0, 0), rgb(255, 255, 255));&quot;&gt;- user do sistema&amp;nbsp;&lt;br&gt;&lt;/span&gt;&lt;span style=&quot;background-color: transparent; color: light-dark(rgb(0, 0, 0), rgb(255, 255, 255));&quot;&gt;- [estoque] produtos e serviços&amp;nbsp;&lt;br&gt;&lt;/span&gt;&lt;span style=&quot;background-color: transparent; color: light-dark(rgb(0, 0, 0), rgb(255, 255, 255));&quot;&gt;- fotos ?&lt;br&gt;&lt;/span&gt;&lt;span style=&quot;background-color: transparent; color: light-dark(rgb(0, 0, 0), rgb(255, 255, 255));&quot;&gt;- documentos ?&lt;br&gt;&lt;/span&gt;&lt;span style=&quot;background-color: transparent; color: light-dark(rgb(0, 0, 0), rgb(255, 255, 255));&quot;&gt;- fornecedores&lt;/span&gt;&lt;/p&gt;&lt;h1 style=&quot;margin-top: 0px;&quot;&gt;2 - movimentações&lt;/h1&gt;&lt;p&gt;&lt;span style=&quot;background-color: transparent; color: light-dark(rgb(0, 0, 0), rgb(255, 255, 255));&quot;&gt;- clientes&lt;br&gt;&lt;/span&gt;&lt;span style=&quot;background-color: transparent; color: light-dark(rgb(0, 0, 0), rgb(255, 255, 255));&quot;&gt;- colaboradores&lt;br&gt;&lt;/span&gt;&lt;span style=&quot;background-color: transparent; color: light-dark(rgb(0, 0, 0), rgb(255, 255, 255));&quot;&gt;-&amp;nbsp;&amp;nbsp;&lt;/span&gt;&lt;/p&gt;&lt;h1 style=&quot;margin-top: 0px;&quot;&gt;3 - movimentações&lt;/h1&gt;&lt;p&gt;&lt;span style=&quot;background-color: transparent; color: light-dark(rgb(0, 0, 0), rgb(255, 255, 255));&quot;&gt;- clientes&lt;br&gt;&lt;/span&gt;&lt;span style=&quot;background-color: transparent; color: light-dark(rgb(0, 0, 0), rgb(255, 255, 255));&quot;&gt;- colaboradores&lt;/span&gt;&lt;/p&gt;&lt;p&gt;&lt;br&gt;&lt;/p&gt;" style="text;html=1;whiteSpace=wrap;overflow=hidden;rounded=0;spacing=2;spacingTop=0;verticalAlign=top;" vertex="1" parent="1">
          <mxGeometry x="-300" y="230" width="260" height="420" as="geometry" />
        </mxCell>
        <mxCell id="NpKGvnTNqo4O0EPtivp0-33" value="" style="group" vertex="1" connectable="0" parent="1">
          <mxGeometry x="480" y="222.5" width="174" height="335" as="geometry" />
        </mxCell>
        <mxCell id="NpKGvnTNqo4O0EPtivp0-14" value="cadastro" style="rounded=0;whiteSpace=wrap;html=1;" vertex="1" parent="NpKGvnTNqo4O0EPtivp0-33">
          <mxGeometry x="1" y="11" width="140" height="40" as="geometry" />
        </mxCell>
        <mxCell id="NpKGvnTNqo4O0EPtivp0-18" value="1" style="ellipse;whiteSpace=wrap;html=1;aspect=fixed;fillColor=#d5e8d4;strokeColor=#82b366;" vertex="1" parent="NpKGvnTNqo4O0EPtivp0-33">
          <mxGeometry x="134" width="40" height="40" as="geometry" />
        </mxCell>
        <mxCell id="NpKGvnTNqo4O0EPtivp0-20" value="" style="group" vertex="1" connectable="0" parent="NpKGvnTNqo4O0EPtivp0-33">
          <mxGeometry x="1" y="81" width="170" height="50" as="geometry" />
        </mxCell>
        <mxCell id="NpKGvnTNqo4O0EPtivp0-16" value="movimentações" style="rounded=0;whiteSpace=wrap;html=1;" vertex="1" parent="NpKGvnTNqo4O0EPtivp0-20">
          <mxGeometry y="10" width="140" height="40" as="geometry" />
        </mxCell>
        <mxCell id="NpKGvnTNqo4O0EPtivp0-19" value="2" style="ellipse;whiteSpace=wrap;html=1;aspect=fixed;fillColor=#d5e8d4;strokeColor=#82b366;" vertex="1" parent="NpKGvnTNqo4O0EPtivp0-20">
          <mxGeometry x="130" width="40" height="40" as="geometry" />
        </mxCell>
        <mxCell id="NpKGvnTNqo4O0EPtivp0-21" value="" style="group" vertex="1" connectable="0" parent="NpKGvnTNqo4O0EPtivp0-33">
          <mxGeometry y="219" width="170" height="50" as="geometry" />
        </mxCell>
        <mxCell id="NpKGvnTNqo4O0EPtivp0-22" value="agenda financeira" style="rounded=0;whiteSpace=wrap;html=1;" vertex="1" parent="NpKGvnTNqo4O0EPtivp0-21">
          <mxGeometry y="10" width="140" height="40" as="geometry" />
        </mxCell>
        <mxCell id="NpKGvnTNqo4O0EPtivp0-23" value="4" style="ellipse;whiteSpace=wrap;html=1;aspect=fixed;fillColor=#d5e8d4;strokeColor=#82b366;" vertex="1" parent="NpKGvnTNqo4O0EPtivp0-21">
          <mxGeometry x="130" width="40" height="40" as="geometry" />
        </mxCell>
        <mxCell id="NpKGvnTNqo4O0EPtivp0-27" value="" style="group" vertex="1" connectable="0" parent="NpKGvnTNqo4O0EPtivp0-33">
          <mxGeometry y="150" width="170" height="50" as="geometry" />
        </mxCell>
        <mxCell id="NpKGvnTNqo4O0EPtivp0-28" value="operações" style="rounded=0;whiteSpace=wrap;html=1;" vertex="1" parent="NpKGvnTNqo4O0EPtivp0-27">
          <mxGeometry y="10" width="140" height="40" as="geometry" />
        </mxCell>
        <mxCell id="NpKGvnTNqo4O0EPtivp0-29" value="3" style="ellipse;whiteSpace=wrap;html=1;aspect=fixed;fillColor=#d5e8d4;strokeColor=#82b366;" vertex="1" parent="NpKGvnTNqo4O0EPtivp0-27">
          <mxGeometry x="130" width="40" height="40" as="geometry" />
        </mxCell>
        <mxCell id="NpKGvnTNqo4O0EPtivp0-30" value="" style="group" vertex="1" connectable="0" parent="NpKGvnTNqo4O0EPtivp0-33">
          <mxGeometry y="285" width="170" height="50" as="geometry" />
        </mxCell>
        <mxCell id="NpKGvnTNqo4O0EPtivp0-31" value="relatorios" style="rounded=0;whiteSpace=wrap;html=1;" vertex="1" parent="NpKGvnTNqo4O0EPtivp0-30">
          <mxGeometry y="10" width="140" height="40" as="geometry" />
        </mxCell>
        <mxCell id="NpKGvnTNqo4O0EPtivp0-32" value="5" style="ellipse;whiteSpace=wrap;html=1;aspect=fixed;fillColor=#d5e8d4;strokeColor=#82b366;" vertex="1" parent="NpKGvnTNqo4O0EPtivp0-30">
          <mxGeometry x="130" width="40" height="40" as="geometry" />
        </mxCell>
        <mxCell id="NpKGvnTNqo4O0EPtivp0-37" value="" style="group" vertex="1" connectable="0" parent="1">
          <mxGeometry x="120" y="760" width="120" height="190" as="geometry" />
        </mxCell>
        <mxCell id="NpKGvnTNqo4O0EPtivp0-36" value="" style="rounded=0;whiteSpace=wrap;html=1;" vertex="1" parent="NpKGvnTNqo4O0EPtivp0-37">
          <mxGeometry width="120" height="190" as="geometry" />
        </mxCell>
        <mxCell id="NpKGvnTNqo4O0EPtivp0-34" value="" style="html=1;verticalLabelPosition=bottom;align=center;labelBackgroundColor=#ffffff;verticalAlign=top;strokeWidth=2;strokeColor=#0080F0;shadow=0;dashed=0;shape=mxgraph.ios7.icons.smartphone;" vertex="1" parent="NpKGvnTNqo4O0EPtivp0-37">
          <mxGeometry x="47.582413793103456" y="40" width="24.827586206896555" height="37.5" as="geometry" />
        </mxCell>
        <mxCell id="NpKGvnTNqo4O0EPtivp0-88" value="Amazon S3" style="sketch=0;outlineConnect=0;fontColor=#232F3E;gradientColor=none;strokeColor=#ffffff;fillColor=#232F3E;dashed=0;verticalLabelPosition=middle;verticalAlign=bottom;align=center;html=1;whiteSpace=wrap;fontSize=10;fontStyle=1;spacing=3;shape=mxgraph.aws4.productIcon;prIcon=mxgraph.aws4.s3;" vertex="1" parent="NpKGvnTNqo4O0EPtivp0-37">
          <mxGeometry x="65.41" y="130" width="40" height="40" as="geometry" />
        </mxCell>
        <mxCell id="NpKGvnTNqo4O0EPtivp0-35" value="" style="image;points=[];aspect=fixed;html=1;align=center;shadow=0;dashed=0;image=img/lib/allied_telesis/computer_and_terminals/Laptop.svg;" vertex="1" parent="NpKGvnTNqo4O0EPtivp0-37">
          <mxGeometry x="39" y="110" width="42" height="42.599999999999994" as="geometry" />
        </mxCell>
        <mxCell id="NpKGvnTNqo4O0EPtivp0-40" value="Amazon Cognito" style="sketch=0;outlineConnect=0;fontColor=#232F3E;gradientColor=none;strokeColor=#ffffff;fillColor=#232F3E;dashed=0;verticalLabelPosition=middle;verticalAlign=bottom;align=center;html=1;whiteSpace=wrap;fontSize=10;fontStyle=1;spacing=3;shape=mxgraph.aws4.productIcon;prIcon=mxgraph.aws4.cognito;" vertex="1" parent="1">
          <mxGeometry x="280" y="610" width="80" height="110" as="geometry" />
        </mxCell>
        <mxCell id="NpKGvnTNqo4O0EPtivp0-48" value="" style="edgeStyle=orthogonalEdgeStyle;rounded=0;orthogonalLoop=1;jettySize=auto;html=1;" edge="1" parent="1" source="NpKGvnTNqo4O0EPtivp0-45" target="NpKGvnTNqo4O0EPtivp0-47">
          <mxGeometry relative="1" as="geometry" />
        </mxCell>
        <mxCell id="NpKGvnTNqo4O0EPtivp0-50" value="" style="edgeStyle=orthogonalEdgeStyle;rounded=0;orthogonalLoop=1;jettySize=auto;html=1;" edge="1" parent="1" source="NpKGvnTNqo4O0EPtivp0-45" target="NpKGvnTNqo4O0EPtivp0-49">
          <mxGeometry relative="1" as="geometry" />
        </mxCell>
        <mxCell id="NpKGvnTNqo4O0EPtivp0-45" value="login" style="html=1;verticalLabelPosition=bottom;align=center;labelBackgroundColor=#ffffff;verticalAlign=top;strokeWidth=2;strokeColor=#0080F0;shadow=0;dashed=0;shape=mxgraph.ios7.icons.smartphone;" vertex="1" parent="1">
          <mxGeometry x="-1240" y="1870" width="50" height="80" as="geometry" />
        </mxCell>
        <mxCell id="NpKGvnTNqo4O0EPtivp0-53" value="" style="edgeStyle=orthogonalEdgeStyle;rounded=0;orthogonalLoop=1;jettySize=auto;html=1;" edge="1" parent="1" source="NpKGvnTNqo4O0EPtivp0-46" target="NpKGvnTNqo4O0EPtivp0-52">
          <mxGeometry relative="1" as="geometry" />
        </mxCell>
        <mxCell id="NpKGvnTNqo4O0EPtivp0-55" value="" style="edgeStyle=orthogonalEdgeStyle;rounded=0;orthogonalLoop=1;jettySize=auto;html=1;" edge="1" parent="1" source="NpKGvnTNqo4O0EPtivp0-46" target="NpKGvnTNqo4O0EPtivp0-54">
          <mxGeometry relative="1" as="geometry" />
        </mxCell>
        <mxCell id="NpKGvnTNqo4O0EPtivp0-83" value="" style="edgeStyle=orthogonalEdgeStyle;rounded=0;orthogonalLoop=1;jettySize=auto;html=1;" edge="1" parent="1" source="NpKGvnTNqo4O0EPtivp0-46" target="NpKGvnTNqo4O0EPtivp0-82">
          <mxGeometry relative="1" as="geometry" />
        </mxCell>
        <mxCell id="NpKGvnTNqo4O0EPtivp0-46" value="home" style="html=1;verticalLabelPosition=bottom;align=center;labelBackgroundColor=#ffffff;verticalAlign=top;strokeWidth=2;strokeColor=#0080F0;shadow=0;dashed=0;shape=mxgraph.ios7.icons.smartphone;" vertex="1" parent="1">
          <mxGeometry x="-970" y="1870" width="50" height="80" as="geometry" />
        </mxCell>
        <mxCell id="NpKGvnTNqo4O0EPtivp0-76" value="" style="edgeStyle=orthogonalEdgeStyle;rounded=0;orthogonalLoop=1;jettySize=auto;html=1;" edge="1" parent="1" source="NpKGvnTNqo4O0EPtivp0-47" target="NpKGvnTNqo4O0EPtivp0-75">
          <mxGeometry relative="1" as="geometry" />
        </mxCell>
        <mxCell id="NpKGvnTNqo4O0EPtivp0-47" value="novo" style="html=1;verticalLabelPosition=bottom;align=center;labelBackgroundColor=#ffffff;verticalAlign=top;strokeWidth=2;strokeColor=#0080F0;shadow=0;dashed=0;shape=mxgraph.ios7.icons.smartphone;" vertex="1" parent="1">
          <mxGeometry x="-1240" y="1760" width="50" height="80" as="geometry" />
        </mxCell>
        <mxCell id="NpKGvnTNqo4O0EPtivp0-49" value="esqueceu" style="html=1;verticalLabelPosition=bottom;align=center;labelBackgroundColor=#ffffff;verticalAlign=top;strokeWidth=2;strokeColor=#0080F0;shadow=0;dashed=0;shape=mxgraph.ios7.icons.smartphone;" vertex="1" parent="1">
          <mxGeometry x="-1240" y="2000" width="50" height="80" as="geometry" />
        </mxCell>
        <mxCell id="NpKGvnTNqo4O0EPtivp0-51" style="edgeStyle=orthogonalEdgeStyle;rounded=0;orthogonalLoop=1;jettySize=auto;html=1;entryX=-0.051;entryY=0.493;entryDx=0;entryDy=0;entryPerimeter=0;" edge="1" parent="1" source="NpKGvnTNqo4O0EPtivp0-45" target="NpKGvnTNqo4O0EPtivp0-46">
          <mxGeometry relative="1" as="geometry" />
        </mxCell>
        <mxCell id="NpKGvnTNqo4O0EPtivp0-68" value="" style="edgeStyle=orthogonalEdgeStyle;rounded=0;orthogonalLoop=1;jettySize=auto;html=1;" edge="1" parent="1" source="NpKGvnTNqo4O0EPtivp0-52" target="NpKGvnTNqo4O0EPtivp0-67">
          <mxGeometry relative="1" as="geometry" />
        </mxCell>
        <mxCell id="NpKGvnTNqo4O0EPtivp0-70" value="" style="edgeStyle=orthogonalEdgeStyle;rounded=0;orthogonalLoop=1;jettySize=auto;html=1;" edge="1" parent="1" source="NpKGvnTNqo4O0EPtivp0-52" target="NpKGvnTNqo4O0EPtivp0-69">
          <mxGeometry relative="1" as="geometry" />
        </mxCell>
        <mxCell id="NpKGvnTNqo4O0EPtivp0-52" value="operacoes" style="html=1;verticalLabelPosition=bottom;align=center;labelBackgroundColor=#ffffff;verticalAlign=top;strokeWidth=2;strokeColor=#0080F0;shadow=0;dashed=0;shape=mxgraph.ios7.icons.smartphone;" vertex="1" parent="1">
          <mxGeometry x="-780" y="1870" width="50" height="80" as="geometry" />
        </mxCell>
        <mxCell id="NpKGvnTNqo4O0EPtivp0-57" value="" style="edgeStyle=orthogonalEdgeStyle;rounded=0;orthogonalLoop=1;jettySize=auto;html=1;" edge="1" parent="1" source="NpKGvnTNqo4O0EPtivp0-54" target="NpKGvnTNqo4O0EPtivp0-56">
          <mxGeometry relative="1" as="geometry" />
        </mxCell>
        <mxCell id="NpKGvnTNqo4O0EPtivp0-58" value="" style="edgeStyle=orthogonalEdgeStyle;rounded=0;orthogonalLoop=1;jettySize=auto;html=1;" edge="1" parent="1" source="NpKGvnTNqo4O0EPtivp0-54" target="NpKGvnTNqo4O0EPtivp0-56">
          <mxGeometry relative="1" as="geometry" />
        </mxCell>
        <mxCell id="NpKGvnTNqo4O0EPtivp0-60" value="" style="edgeStyle=orthogonalEdgeStyle;rounded=0;orthogonalLoop=1;jettySize=auto;html=1;" edge="1" parent="1" source="NpKGvnTNqo4O0EPtivp0-54" target="NpKGvnTNqo4O0EPtivp0-59">
          <mxGeometry relative="1" as="geometry" />
        </mxCell>
        <mxCell id="NpKGvnTNqo4O0EPtivp0-61" value="" style="edgeStyle=orthogonalEdgeStyle;rounded=0;orthogonalLoop=1;jettySize=auto;html=1;" edge="1" parent="1" source="NpKGvnTNqo4O0EPtivp0-54" target="NpKGvnTNqo4O0EPtivp0-59">
          <mxGeometry relative="1" as="geometry" />
        </mxCell>
        <mxCell id="NpKGvnTNqo4O0EPtivp0-64" value="" style="edgeStyle=orthogonalEdgeStyle;rounded=0;orthogonalLoop=1;jettySize=auto;html=1;" edge="1" parent="1" source="NpKGvnTNqo4O0EPtivp0-54" target="NpKGvnTNqo4O0EPtivp0-63">
          <mxGeometry relative="1" as="geometry" />
        </mxCell>
        <mxCell id="NpKGvnTNqo4O0EPtivp0-54" value="cadastros" style="html=1;verticalLabelPosition=bottom;align=center;labelBackgroundColor=#ffffff;verticalAlign=top;strokeWidth=2;strokeColor=#0080F0;shadow=0;dashed=0;shape=mxgraph.ios7.icons.smartphone;" vertex="1" parent="1">
          <mxGeometry x="-970" y="1710" width="50" height="80" as="geometry" />
        </mxCell>
        <mxCell id="NpKGvnTNqo4O0EPtivp0-56" value="produtos" style="html=1;verticalLabelPosition=bottom;align=center;labelBackgroundColor=#ffffff;verticalAlign=top;strokeWidth=2;strokeColor=#0080F0;shadow=0;dashed=0;shape=mxgraph.ios7.icons.smartphone;" vertex="1" parent="1">
          <mxGeometry x="-860" y="1550" width="50" height="80" as="geometry" />
        </mxCell>
        <mxCell id="NpKGvnTNqo4O0EPtivp0-59" value="serviços" style="html=1;verticalLabelPosition=bottom;align=center;labelBackgroundColor=#ffffff;verticalAlign=top;strokeWidth=2;strokeColor=#0080F0;shadow=0;dashed=0;shape=mxgraph.ios7.icons.smartphone;" vertex="1" parent="1">
          <mxGeometry x="-770" y="1550" width="50" height="80" as="geometry" />
        </mxCell>
        <mxCell id="NpKGvnTNqo4O0EPtivp0-63" value="colaboradores" style="html=1;verticalLabelPosition=bottom;align=center;labelBackgroundColor=#ffffff;verticalAlign=top;strokeWidth=2;strokeColor=#0080F0;shadow=0;dashed=0;shape=mxgraph.ios7.icons.smartphone;" vertex="1" parent="1">
          <mxGeometry x="-680" y="1550" width="50" height="80" as="geometry" />
        </mxCell>
        <mxCell id="NpKGvnTNqo4O0EPtivp0-67" value="vendas" style="html=1;verticalLabelPosition=bottom;align=center;labelBackgroundColor=#ffffff;verticalAlign=top;strokeWidth=2;strokeColor=#0080F0;shadow=0;dashed=0;shape=mxgraph.ios7.icons.smartphone;" vertex="1" parent="1">
          <mxGeometry x="-640" y="1770" width="50" height="80" as="geometry" />
        </mxCell>
        <mxCell id="NpKGvnTNqo4O0EPtivp0-69" value="os" style="html=1;verticalLabelPosition=bottom;align=center;labelBackgroundColor=#ffffff;verticalAlign=top;strokeWidth=2;strokeColor=#0080F0;shadow=0;dashed=0;shape=mxgraph.ios7.icons.smartphone;" vertex="1" parent="1">
          <mxGeometry x="-540" y="1770" width="50" height="80" as="geometry" />
        </mxCell>
        <mxCell id="NpKGvnTNqo4O0EPtivp0-77" value="" style="edgeStyle=orthogonalEdgeStyle;rounded=0;orthogonalLoop=1;jettySize=auto;html=1;" edge="1" parent="1" source="NpKGvnTNqo4O0EPtivp0-73" target="NpKGvnTNqo4O0EPtivp0-45">
          <mxGeometry relative="1" as="geometry" />
        </mxCell>
        <mxCell id="NpKGvnTNqo4O0EPtivp0-73" value="splash&lt;br&gt;screen" style="html=1;verticalLabelPosition=bottom;align=center;labelBackgroundColor=#ffffff;verticalAlign=top;strokeWidth=2;strokeColor=#0080F0;shadow=0;dashed=0;shape=mxgraph.ios7.icons.smartphone;" vertex="1" parent="1">
          <mxGeometry x="-1370" y="1870" width="50" height="80" as="geometry" />
        </mxCell>
        <mxCell id="NpKGvnTNqo4O0EPtivp0-75" value="trilha&lt;br&gt;de aprendizado" style="html=1;verticalLabelPosition=bottom;align=center;labelBackgroundColor=#ffffff;verticalAlign=top;strokeWidth=2;strokeColor=#0080F0;shadow=0;dashed=0;shape=mxgraph.ios7.icons.smartphone;" vertex="1" parent="1">
          <mxGeometry x="-1240" y="1600" width="50" height="80" as="geometry" />
        </mxCell>
        <mxCell id="NpKGvnTNqo4O0EPtivp0-78" value="contas &lt;br&gt;a pagar &lt;br&gt;e a &lt;br&gt;receber" style="html=1;verticalLabelPosition=bottom;align=center;labelBackgroundColor=#ffffff;verticalAlign=top;strokeWidth=2;strokeColor=#0080F0;shadow=0;dashed=0;shape=mxgraph.ios7.icons.smartphone;" vertex="1" parent="1">
          <mxGeometry x="-440" y="1770" width="50" height="80" as="geometry" />
        </mxCell>
        <mxCell id="NpKGvnTNqo4O0EPtivp0-81" style="edgeStyle=orthogonalEdgeStyle;rounded=0;orthogonalLoop=1;jettySize=auto;html=1;entryX=0.503;entryY=1.045;entryDx=0;entryDy=0;entryPerimeter=0;" edge="1" parent="1" source="NpKGvnTNqo4O0EPtivp0-54" target="NpKGvnTNqo4O0EPtivp0-80">
          <mxGeometry relative="1" as="geometry" />
        </mxCell>
        <mxCell id="NpKGvnTNqo4O0EPtivp0-80" value="clientes" style="html=1;verticalLabelPosition=bottom;align=center;labelBackgroundColor=#ffffff;verticalAlign=top;strokeWidth=2;strokeColor=#0080F0;shadow=0;dashed=0;shape=mxgraph.ios7.icons.smartphone;" vertex="1" parent="1">
          <mxGeometry x="-590" y="1550" width="50" height="80" as="geometry" />
        </mxCell>
        <mxCell id="NpKGvnTNqo4O0EPtivp0-82" value="configs&lt;br&gt;e preferencias" style="html=1;verticalLabelPosition=bottom;align=center;labelBackgroundColor=#ffffff;verticalAlign=top;strokeWidth=2;strokeColor=#0080F0;shadow=0;dashed=0;shape=mxgraph.ios7.icons.smartphone;" vertex="1" parent="1">
          <mxGeometry x="-970" y="2030" width="50" height="80" as="geometry" />
        </mxCell>
        <mxCell id="NpKGvnTNqo4O0EPtivp0-84" style="edgeStyle=orthogonalEdgeStyle;rounded=0;orthogonalLoop=1;jettySize=auto;html=1;" edge="1" parent="1" source="NpKGvnTNqo4O0EPtivp0-36" target="NpKGvnTNqo4O0EPtivp0-40">
          <mxGeometry relative="1" as="geometry" />
        </mxCell>
        <mxCell id="NpKGvnTNqo4O0EPtivp0-86" style="edgeStyle=orthogonalEdgeStyle;rounded=0;orthogonalLoop=1;jettySize=auto;html=1;" edge="1" parent="1" source="NpKGvnTNqo4O0EPtivp0-36" target="NpKGvnTNqo4O0EPtivp0-85">
          <mxGeometry relative="1" as="geometry">
            <Array as="points">
              <mxPoint x="100" y="1000" />
            </Array>
          </mxGeometry>
        </mxCell>
        <mxCell id="NpKGvnTNqo4O0EPtivp0-87" value="Amazon S3" style="sketch=0;outlineConnect=0;fontColor=#232F3E;gradientColor=none;strokeColor=#ffffff;fillColor=#232F3E;dashed=0;verticalLabelPosition=middle;verticalAlign=bottom;align=center;html=1;whiteSpace=wrap;fontSize=10;fontStyle=1;spacing=3;shape=mxgraph.aws4.productIcon;prIcon=mxgraph.aws4.s3;" vertex="1" parent="1">
          <mxGeometry x="740" y="1170" width="80" height="100" as="geometry" />
        </mxCell>
        <mxCell id="NpKGvnTNqo4O0EPtivp0-89" value="Amazon SNS" style="sketch=0;outlineConnect=0;fontColor=#232F3E;gradientColor=none;strokeColor=#ffffff;fillColor=#232F3E;dashed=0;verticalLabelPosition=middle;verticalAlign=bottom;align=center;html=1;whiteSpace=wrap;fontSize=10;fontStyle=1;spacing=3;shape=mxgraph.aws4.productIcon;prIcon=mxgraph.aws4.sns;" vertex="1" parent="1">
          <mxGeometry x="890" y="1170" width="80" height="100" as="geometry" />
        </mxCell>
      </root>
    </mxGraphModel>
  </diagram>
</mxfile>
